<svg width="25" height="25" viewBox="0 0 25 25" fill="none" xmlns="http://www.w3.org/2000/svg">
<path d="M23.2 6.0552L19 10.0052L23 21.0052L20 24.0052L14.025 15.2552L11 18.0052V21.0052L8 24.0052L6.225 18.7677L1 17.0052L4 14.0052H7L10 11.0052L1 5.0052L4 2.0052L15 6.0052L18.9625 1.8177L18.875 1.8802C19.4386 1.31662 20.203 1 21 1C21.797 1 22.5614 1.31662 23.125 1.8802C23.6886 2.44379 24.0052 3.20817 24.0052 4.0052C24.0052 4.80223 23.6886 5.56662 23.125 6.1302L23.2 6.0552Z" stroke="#F6F6F6" stroke-width="2" stroke-linecap="round" stroke-linejoin="round"/>
</svg>
