<svg width="74" height="61" viewBox="0 0 74 61" fill="none" xmlns="http://www.w3.org/2000/svg">
<path d="M9.9104 30.03H12.8234L70.912 26.4368C71.5403 26.5508 67.6563 37.7297 61.4876 39.0986C47.3158 42.2433 31.4584 40.8172 20.0387 39.0986C19.0939 35.4027 11.6362 33.4521 8.02551 32.9388L9.9104 30.03Z" fill="#EBEBEB"/>
<path d="M8.36819 33.7943C1.00001 34.4787 5.51231 33.1883 1.68542 35.0705C1.68542 26.0361 14.1942 26.4367 22.9332 26.4367C4.42707 28.49 12.138 33.4441 8.36819 33.7943Z" fill="url(#paint0_linear_428_1995)"/>
<path d="M20.0202 38.9274C17.8167 35.7955 9.91035 30.5432 1 35.5052" stroke="#EBEBEB" stroke-width="2" stroke-linecap="round"/>
<path d="M9.9104 30.03H12.8234L60.2882 31.5699L70.912 26.4368C73.9055 26.9802 50.521 40.1252 35.7847 40.1252L20.0387 39.0986C19.0939 35.4027 11.6362 33.4521 8.02551 32.9388L9.9104 30.03Z" fill="#EBEBEB"/>
<path fill-rule="evenodd" clip-rule="evenodd" d="M9.56763 31.9121C32.1862 40.4674 63.8704 43.0441 69.7125 30.5433C71.6422 26.4143 73.6536 21.1325 72.7969 20.6192C72.5498 20.4044 71.8836 20.9721 70.7397 22.1379C69.451 22.8227 67.4641 24.1696 64.5719 26.2657L48.0824 27.2948L24.9894 26.6079C20.8875 26.551 12.4897 26.5736 11.6304 27.117C11.6281 27.1184 11.626 27.1198 11.6239 27.1212C11.5384 27.1781 11.4595 27.2516 11.3869 27.3385C10.5841 28.2534 9.56763 31.032 9.56763 31.9121Z" fill="url(#paint1_linear_428_1995)"/>
<path d="M0.00324631 35.4249C-0.0412189 35.9754 0.368997 36.4577 0.919489 36.5022C1.46998 36.5466 1.95229 36.1364 1.99675 35.5859L0.00324631 35.4249ZM11.9861 26.5983L12.088 27.5931L11.9861 26.5983ZM72.2828 20.9614H73.2828C73.2828 20.5353 73.0127 20.1559 72.61 20.0165C72.2073 19.877 71.7605 20.0081 71.4969 20.3431L72.2828 20.9614ZM62.2936 36.8104C61.7859 37.0277 61.5504 37.6155 61.7677 38.1232C61.985 38.631 62.5728 38.8664 63.0805 38.6491L62.2936 36.8104ZM1.99675 35.5859C2.17211 33.415 4.32091 28.3886 12.088 27.5931L11.8842 25.6035C3.08761 26.5045 0.250434 32.3646 0.00324631 35.4249L1.99675 35.5859ZM12.088 27.5931C14.9027 27.3048 19.4449 27.5424 24.9394 27.8957C30.3907 28.2462 36.7084 28.7039 42.9559 28.8231C49.1985 28.9422 55.4293 28.7253 60.7148 27.7091C65.9654 26.6996 70.4839 24.8648 73.0687 21.5798L71.4969 20.3431C69.3695 23.0468 65.453 24.7615 60.3372 25.7451C55.2564 26.722 49.1893 26.9417 42.994 26.8235C36.8035 26.7053 30.5432 26.2518 25.0678 25.8998C19.6355 25.5505 14.9023 25.2943 11.8842 25.6035L12.088 27.5931ZM71.2828 20.9614C71.2828 25.0078 70.0873 33.4751 62.2936 36.8104L63.0805 38.6491C72.0794 34.798 73.2828 25.1281 73.2828 20.9614H71.2828Z" fill="#EBEBEB"/>
<path d="M36.3194 10.1817C32.7725 10.5574 32.7781 15.6001 33.235 18.2237C33.235 18.2237 44.4729 18.7695 52.7692 19.0792C71.104 19.7636 71.9608 15.9993 71.9608 15.9993C71.9608 15.9993 72.067 15.4868 71.9608 14.2883C71.8594 13.1446 68.191 10.8662 68.191 10.8662C68.191 10.8662 47.6287 8.98399 36.3194 10.1817Z" fill="url(#paint2_linear_428_1995)"/>
<path d="M8.36819 33.7942C1.00001 34.4786 5.51231 33.1882 1.68542 35.0704C1.68542 26.036 13.6801 26.95 22.4191 26.95C3.91301 29.0032 12.138 33.444 8.36819 33.7942Z" fill="url(#paint3_linear_428_1995)"/>
<path d="M39.2117 1.45534C34.3276 2.13027 35.8468 7.82657 37.4748 10.3576H55.6158L70.912 13.6038C67.8277 11.2084 66.1141 8.96615 62.0721 6.30797C55.7251 2.13387 46.6438 0.428309 39.2117 1.45534Z" fill="url(#paint4_linear_428_1995)"/>
<path d="M27.5803 26.6078C27.409 24.2694 27.5391 22.5013 29.9587 20.2769C34.9315 15.7052 45.1154 19.0221 51.5697 18.9081C57.0437 19.2296 69.4581 18.3427 71.9332 16.3893C72.1485 16.1483 72.2828 15.9993 72.2828 15.9993C72.2104 16.1337 72.0923 16.2637 71.9332 16.3893C71.419 16.9646 70.4433 18.0639 69.7331 18.9081C68.7256 20.1058 66.4659 22.3579 65.278 23.3568C61.3679 26.7119 57.3749 27.5844 47.2653 27.4633L27.5803 26.6078Z" fill="url(#paint5_linear_428_1995)"/>
<path d="M27.428 26.4367C28.7585 7.98798 62.3857 26.8789 72.4748 14.9727" stroke="#EBEBEB" stroke-width="2" stroke-linecap="round"/>
<path d="M20.0202 38.9274C17.8167 35.7955 9.91035 30.5432 1 35.5052" stroke="#EBEBEB" stroke-width="2" stroke-linecap="round"/>
<path d="M21.905 37.2163L15.5649 45.7716H20.7055" stroke="#EBEBEB" stroke-width="3" stroke-linecap="round" stroke-linejoin="round"/>
<path d="M1 35.5052C1.21127 32.8896 3.70426 27.4464 11.9861 26.5981C20.2679 25.7498 35.8473 27.6231 47.608 27.9765C57.9471 28.7749 66.8769 23.4897 72.1115 15.4858" stroke="#EBEBEB" stroke-width="2" stroke-linecap="round"/>
<path d="M31.8716 18.7369C31.8716 19.2892 32.3194 19.7369 32.8716 19.7369C33.4239 19.7369 33.8716 19.2892 33.8716 18.7369H31.8716ZM37.5575 10.0105L37.5556 11.0105L37.5575 10.0105ZM72.2828 14.6304L71.9296 15.566C72.3362 15.7194 72.7953 15.5928 73.0657 15.2526C73.3361 14.9124 73.3558 14.4365 73.1145 14.0751L72.2828 14.6304ZM41.2081 1.07632L41.1619 0.0773908L41.2081 1.07632ZM64.6313 7.95728L65.2546 7.17526L64.6313 7.95728ZM33.8716 18.7369C33.8716 18.0855 33.661 16.1167 34.1028 14.2105C34.3194 13.2757 34.6734 12.4724 35.2039 11.9136C35.7048 11.386 36.4252 11.0084 37.5556 11.0105L37.5595 9.01054C35.9085 9.00736 34.6526 9.58952 33.7534 10.5366C32.8838 11.4527 32.414 12.6391 32.1544 13.759C31.6439 15.9619 31.8716 18.3617 31.8716 18.7369H33.8716ZM37.5556 11.0105C37.984 11.0114 38.1339 11.0117 38.134 11.0117C39.1359 10.0136 38.1378 9.01166 38.1378 9.01166C38.1377 9.01166 38.1377 9.01166 38.1377 9.01166C38.1376 9.01166 38.1375 9.01166 38.1374 9.01166C38.1371 9.01166 38.1366 9.01166 38.1361 9.01166C38.1349 9.01165 38.1332 9.01165 38.131 9.01165C38.1266 9.01164 38.1201 9.01163 38.1117 9.01161C38.095 9.01158 38.0709 9.01153 38.0414 9.01147C37.9825 9.01136 37.9022 9.01121 37.8165 9.01104C37.6452 9.01071 37.4524 9.01034 37.3667 9.01017C37.3453 9.01013 37.3306 9.0101 37.3245 9.01009C37.323 9.01009 37.3221 9.01009 37.3217 9.01009C37.3216 9.01009 37.3215 9.01009 37.3215 9.01009C37.3215 9.01009 36.3196 10.0082 37.3176 11.0101C37.3176 11.0101 37.3177 11.0101 37.3177 11.0101C37.3178 11.0101 37.318 11.0101 37.3184 11.0101C37.32 11.0101 37.324 11.0101 37.3307 11.0101C37.3575 11.0102 37.4271 11.0103 37.5556 11.0105L37.5595 9.01054C37.431 9.0103 37.3613 9.01016 37.3346 9.01011C37.3279 9.0101 37.3239 9.01009 37.3223 9.01009C37.3219 9.01009 37.3216 9.01009 37.3215 9.01009C37.3215 9.01009 37.3215 9.01009 37.3215 9.01009C38.3196 10.012 37.3176 11.0101 37.3176 11.0101C37.3177 11.0101 37.3177 11.0101 37.3178 11.0101C37.3182 11.0101 37.3192 11.0101 37.3207 11.0101C37.3267 11.0101 37.3414 11.0101 37.3628 11.0102C37.4485 11.0103 37.6413 11.0107 37.8126 11.011C37.8984 11.0112 37.9786 11.0114 38.0375 11.0115C38.067 11.0115 38.0911 11.0116 38.1078 11.0116C38.1162 11.0116 38.1227 11.0116 38.1272 11.0116C38.1294 11.0116 38.1311 11.0117 38.1322 11.0117C38.1328 11.0117 38.1332 11.0117 38.1335 11.0117C38.1336 11.0117 38.1338 11.0117 38.1338 11.0117C38.1339 11.0117 38.1339 11.0117 38.1339 11.0117C38.1339 11.0117 37.1359 10.0097 38.1378 9.01166C38.1378 9.01166 37.9879 9.01137 37.5595 9.01054L37.5556 11.0105ZM38.0986 9.16955C36.9608 8.43759 36.2089 6.71154 36.5202 5.13541C36.6689 4.38297 37.0588 3.67858 37.7692 3.13482C38.4869 2.58558 39.5966 2.15191 41.2543 2.07526L41.1619 0.0773908C39.2021 0.168021 37.6699 0.692349 36.5537 1.5466C35.4304 2.40633 34.7946 3.55094 34.5581 4.7478C34.0993 7.07028 35.1396 9.64405 37.0165 10.8515L38.0986 9.16955ZM64.0081 8.7393C66.8731 11.0226 68.6837 12.5492 69.8154 13.563C70.9763 14.6028 71.3598 15.0488 71.4511 15.1857L73.1145 14.0751C72.8631 13.6986 72.293 13.0971 71.1498 12.0732C69.9776 11.0232 68.1338 9.46993 65.2546 7.17526L64.0081 8.7393ZM37.5556 11.0105C46.6246 11.028 58.081 10.3381 71.9296 15.566L72.636 13.6948C58.3828 8.3142 46.5351 9.02786 37.5595 9.01054L37.5556 11.0105ZM41.2543 2.07526C46.3723 1.83858 50.3355 2.1479 53.8657 3.17964C57.3862 4.20856 60.539 5.97452 64.0081 8.7393L65.2546 7.17526C61.6388 4.29355 58.2577 2.3796 54.4267 1.25995C50.6054 0.14311 46.3995 -0.164813 41.1619 0.0773908L41.2543 2.07526Z" fill="#EBEBEB"/>
<path d="M56.7899 52.5488C56.1561 52.5488 55.5918 52.4404 55.0969 52.2237C54.602 52.0069 54.2113 51.7122 53.9248 51.3394C53.6383 50.958 53.4777 50.5332 53.443 50.065H55.6438C55.6699 50.3164 55.7871 50.5202 55.9955 50.6762C56.2038 50.8323 56.4599 50.9103 56.7638 50.9103C57.0416 50.9103 57.2543 50.8583 57.4019 50.7542C57.5582 50.6415 57.6363 50.4985 57.6363 50.3251C57.6363 50.117 57.5278 49.9653 57.3108 49.87C57.0937 49.7659 56.7421 49.6532 56.2559 49.5318C55.735 49.4105 55.3009 49.2848 54.9536 49.1547C54.6064 49.016 54.3068 48.8036 54.0551 48.5175C53.8033 48.2228 53.6774 47.8283 53.6774 47.3342C53.6774 46.918 53.7903 46.5409 54.016 46.2028C54.2504 45.856 54.589 45.583 55.0318 45.3836C55.4832 45.1842 56.0172 45.0845 56.6336 45.0845C57.5452 45.0845 58.2614 45.3099 58.7823 45.7607C59.3119 46.2115 59.6158 46.8097 59.6939 47.5552H57.6363C57.6016 47.3038 57.4887 47.1044 57.2977 46.9571C57.1154 46.8097 56.8723 46.736 56.5685 46.736C56.308 46.736 56.1083 46.788 55.9694 46.892C55.8305 46.9874 55.7611 47.1218 55.7611 47.2952C55.7611 47.5032 55.8696 47.6593 56.0866 47.7633C56.3124 47.8673 56.6596 47.9714 57.1285 48.0754C57.6667 48.2141 58.1052 48.3528 58.4438 48.4915C58.7823 48.6216 59.0775 48.8383 59.3293 49.1417C59.5898 49.4365 59.7243 49.8353 59.733 50.3381C59.733 50.7629 59.6115 51.1443 59.3684 51.4825C59.134 51.8119 58.791 52.072 58.3396 52.2627C57.8968 52.4534 57.3802 52.5488 56.7899 52.5488Z" fill="#EBEBEB"/>
<path d="M51.113 44.4343C50.7223 44.4343 50.4011 44.3216 50.1493 44.0962C49.9062 43.8621 49.7847 43.576 49.7847 43.2379C49.7847 42.8912 49.9062 42.6051 50.1493 42.3797C50.4011 42.1456 50.7223 42.0286 51.113 42.0286C51.495 42.0286 51.8075 42.1456 52.0506 42.3797C52.3024 42.6051 52.4283 42.8912 52.4283 43.2379C52.4283 43.576 52.3024 43.8621 52.0506 44.0962C51.8075 44.3216 51.495 44.4343 51.113 44.4343ZM52.2199 45.1885V52.4448H49.993V45.1885H52.2199Z" fill="#EBEBEB"/>
<path d="M43.9152 45.0845C44.4274 45.0845 44.8745 45.1885 45.2565 45.3966C45.6472 45.6046 45.9467 45.8777 46.1551 46.2158V45.1885H48.382V52.4317C48.382 53.0993 48.2474 53.7018 47.9783 54.2393C47.7178 54.7855 47.3141 55.2189 46.7672 55.5397C46.2289 55.8605 45.556 56.0209 44.7486 56.0209C43.6721 56.0209 42.7995 55.7651 42.131 55.2536C41.4625 54.7508 41.0805 54.0659 40.985 53.199H43.1859C43.2553 53.4764 43.4203 53.6931 43.6807 53.8492C43.9412 54.0139 44.2624 54.0963 44.6444 54.0963C45.1046 54.0963 45.4692 53.9619 45.7384 53.6931C46.0162 53.4331 46.1551 53.0126 46.1551 52.4317V51.4044C45.938 51.7425 45.6385 52.02 45.2565 52.2367C44.8745 52.4447 44.4274 52.5488 43.9152 52.5488C43.3161 52.5488 42.7735 52.3971 42.2873 52.0936C41.8011 51.7815 41.4148 51.3437 41.1283 50.7802C40.8505 50.2081 40.7115 49.5492 40.7115 48.8036C40.7115 48.0581 40.8505 47.4035 41.1283 46.84C41.4148 46.2765 41.8011 45.843 42.2873 45.5396C42.7735 45.2362 43.3161 45.0845 43.9152 45.0845ZM46.1551 48.8166C46.1551 48.2618 45.9988 47.824 45.6863 47.5032C45.3824 47.1825 45.0091 47.0221 44.5663 47.0221C44.1235 47.0221 43.7459 47.1825 43.4333 47.5032C43.1295 47.8153 42.9775 48.2488 42.9775 48.8036C42.9775 49.3585 43.1295 49.8006 43.4333 50.13C43.7459 50.4508 44.1235 50.6112 44.5663 50.6112C45.0091 50.6112 45.3824 50.4508 45.6863 50.13C45.9988 49.8093 46.1551 49.3715 46.1551 48.8166Z" fill="#EBEBEB"/>
<path d="M31.8728 48.8036C31.8728 48.0581 32.0117 47.4035 32.2895 46.84C32.576 46.2765 32.9624 45.843 33.4486 45.5396C33.9347 45.2362 34.4774 45.0845 35.0764 45.0845C35.5886 45.0845 36.0358 45.1885 36.4178 45.3966C36.8085 45.6046 37.108 45.8777 37.3163 46.2158V45.1885H39.5432V52.4448H37.3163V51.4174C37.0993 51.7555 36.7954 52.0286 36.4047 52.2367C36.0227 52.4448 35.5756 52.5488 35.0634 52.5488C34.473 52.5488 33.9347 52.3971 33.4486 52.0936C32.9624 51.7815 32.576 51.3437 32.2895 50.7802C32.0117 50.2081 31.8728 49.5492 31.8728 48.8036ZM37.3163 48.8166C37.3163 48.2618 37.1601 47.824 36.8475 47.5032C36.5437 47.1825 36.1703 47.0221 35.7276 47.0221C35.2848 47.0221 34.9071 47.1825 34.5946 47.5032C34.2907 47.8153 34.1388 48.2488 34.1388 48.8036C34.1388 49.3585 34.2907 49.8006 34.5946 50.13C34.9071 50.4508 35.2848 50.6112 35.7276 50.6112C36.1703 50.6112 36.5437 50.4508 36.8475 50.13C37.1601 49.8093 37.3163 49.3715 37.3163 48.8166Z" fill="#EBEBEB"/>
<path d="M27.8019 45.1106C28.7048 45.1106 29.4211 45.3837 29.9507 45.9298C30.489 46.476 30.7581 47.2346 30.7581 48.2056V52.4449H28.5442V48.5046C28.5442 48.0365 28.4183 47.6767 28.1666 47.4253C27.9235 47.1652 27.5849 47.0352 27.1508 47.0352C26.7167 47.0352 26.3737 47.1652 26.122 47.4253C25.8789 47.6767 25.7573 48.0365 25.7573 48.5046V52.4449H23.5435V48.5046C23.5435 48.0365 23.4176 47.6767 23.1658 47.4253C22.9227 47.1652 22.5841 47.0352 22.15 47.0352C21.7159 47.0352 21.373 47.1652 21.1212 47.4253C20.8781 47.6767 20.7566 48.0365 20.7566 48.5046V52.4449H18.5297V45.1886H20.7566V46.0989C20.9823 45.7955 21.2775 45.5571 21.6421 45.3837C22.0068 45.2016 22.4191 45.1106 22.8793 45.1106C23.4262 45.1106 23.9124 45.2276 24.3378 45.4617C24.7719 45.6958 25.1105 46.0295 25.3536 46.463C25.6054 46.0642 25.9483 45.7391 26.3824 45.4877C26.8165 45.2363 27.2897 45.1106 27.8019 45.1106Z" fill="#EBEBEB"/>
<path d="M66.3198 54.2688C66.5803 53.8701 66.9058 53.558 67.2965 53.3326C67.6872 53.0985 68.1213 52.9814 68.5988 52.9814V55.3352H67.9867C67.4311 55.3352 67.0143 55.4565 66.7365 55.6993C66.4587 55.9334 66.3198 56.3495 66.3198 56.9477V60.3157H64.0929V53.0595H66.3198V54.2688Z" fill="#EBEBEB"/>
<path d="M61.3721 52.3052C60.9815 52.3052 60.6602 52.1925 60.4085 51.9671C60.1654 51.733 60.0438 51.4469 60.0438 51.1088C60.0438 50.762 60.1654 50.4759 60.4085 50.2505C60.6602 50.0165 60.9815 49.8994 61.3721 49.8994C61.7542 49.8994 62.0667 50.0165 62.3098 50.2505C62.5616 50.4759 62.6875 50.762 62.6875 51.1088C62.6875 51.4469 62.5616 51.733 62.3098 51.9671C62.0667 52.1925 61.7542 52.3052 61.3721 52.3052ZM62.4791 53.0594V60.3156H60.2522V53.0594H62.4791Z" fill="#EBEBEB"/>
<path d="M50.9707 56.6745C50.9707 55.9289 51.1096 55.2744 51.3874 54.7109C51.6739 54.1474 52.0603 53.7139 52.5465 53.4105C53.0327 53.107 53.5753 52.9553 54.1743 52.9553C54.6865 52.9553 55.1337 53.0594 55.5157 53.2674C55.9064 53.4755 56.2059 53.7486 56.4142 54.0867V53.0594H58.6411V60.3156H56.4142V59.2883C56.1972 59.6264 55.8933 59.8995 55.5026 60.1075C55.1206 60.3156 54.6735 60.4196 54.1613 60.4196C53.5709 60.4196 53.0327 60.2679 52.5465 59.9645C52.0603 59.6524 51.6739 59.2146 51.3874 58.6511C51.1096 58.0789 50.9707 57.42 50.9707 56.6745ZM56.4142 56.6875C56.4142 56.1326 56.258 55.6948 55.9454 55.3741C55.6416 55.0533 55.2682 54.8929 54.8255 54.8929C54.3827 54.8929 54.005 55.0533 53.6925 55.3741C53.3886 55.6862 53.2367 56.1196 53.2367 56.6745C53.2367 57.2293 53.3886 57.6714 53.6925 58.0009C54.005 58.3216 54.3827 58.482 54.8255 58.482C55.2682 58.482 55.6416 58.3216 55.9454 58.0009C56.258 57.6801 56.4142 57.2423 56.4142 56.6875Z" fill="#EBEBEB"/>
<defs>
<linearGradient id="paint0_linear_428_1995" x1="16.9358" y1="25.239" x2="12.3202" y2="35.0756" gradientUnits="userSpaceOnUse">
<stop stop-color="#FB3B2B"/>
<stop offset="1" stop-color="#B8861A"/>
</linearGradient>
<linearGradient id="paint1_linear_428_1995" x1="-8.59579" y1="27.8056" x2="62.8568" y2="34.1547" gradientUnits="userSpaceOnUse">
<stop offset="0.486" stop-color="#8CCDC5"/>
<stop offset="0.746" stop-color="#4C82C5"/>
<stop offset="1" stop-color="#002584"/>
</linearGradient>
<linearGradient id="paint2_linear_428_1995" x1="33.0218" y1="13.8706" x2="71.9615" y2="13.8706" gradientUnits="userSpaceOnUse">
<stop offset="0.0659998" stop-color="#8CCDC5"/>
<stop offset="0.216" stop-color="#4C82C5"/>
<stop offset="0.521" stop-color="#01007B"/>
</linearGradient>
<linearGradient id="paint3_linear_428_1995" x1="16.9358" y1="25.2389" x2="12.3202" y2="35.0755" gradientUnits="userSpaceOnUse">
<stop stop-color="#FB3B2B"/>
<stop offset="1" stop-color="#B8861A"/>
</linearGradient>
<linearGradient id="paint4_linear_428_1995" x1="35.6339" y1="5.29557" x2="74.4546" y2="5.29557" gradientUnits="userSpaceOnUse">
<stop offset="0.0209998" stop-color="#8CCDC5"/>
<stop offset="0.141" stop-color="#4C82C5"/>
<stop offset="0.341" stop-color="#01007B"/>
</linearGradient>
<linearGradient id="paint5_linear_428_1995" x1="27.5301" y1="21.4746" x2="71.2753" y2="21.4746" gradientUnits="userSpaceOnUse">
<stop offset="0.161" stop-color="#8CCDC5"/>
<stop offset="0.40452" stop-color="#4C82C5"/>
<stop offset="0.681" stop-color="#012583"/>
</linearGradient>
</defs>
</svg>
