<svg width="31" height="18" viewBox="0 0 31 18" fill="none" xmlns="http://www.w3.org/2000/svg">
<path fill-rule="evenodd" clip-rule="evenodd" d="M8.99999 2C6.79085 2 4.99999 3.79086 4.99999 6C4.99999 8.10967 6.63321 9.83789 8.70426 9.98923C8.80268 9.986 8.90126 9.98438 8.99999 9.98438C9.09872 9.98438 9.1973 9.986 9.29572 9.98923C11.3668 9.83789 13 8.10967 13 6C13 3.79086 11.2091 2 8.99999 2ZM12.6539 10.7595C14.0805 9.66259 15 7.93867 15 6C15 2.68629 12.3137 0 8.99999 0C5.68628 0 2.99999 2.68629 2.99999 6C2.99999 7.93867 3.91945 9.66259 5.34608 10.7595C4.68591 11.0527 4.05935 11.4262 3.48144 11.8748C1.90282 13.1002 0.776917 14.8161 0.281239 16.752C0.144251 17.287 0.466924 17.8318 1.00195 17.9688C1.53698 18.1058 2.08175 17.7831 2.21874 17.2481C2.60427 15.7424 3.47997 14.4078 4.70778 13.4547C5.85136 12.5671 7.23981 12.0574 8.68078 11.9917C8.78648 11.9972 8.89291 12 8.99999 12C9.10707 12 9.2135 11.9972 9.3192 11.9917C10.7602 12.0574 12.1486 12.5671 13.2922 13.4547C14.52 14.4078 15.3957 15.7424 15.7812 17.2481C15.9182 17.7831 16.463 18.1058 16.998 17.9688C17.5331 17.8318 17.8557 17.287 17.7187 16.752C17.2231 14.8161 16.0972 13.1002 14.5185 11.8748C13.9406 11.4262 13.3141 11.0527 12.6539 10.7595ZM17 3C17 2.44772 17.4477 2 18 2H30C30.5523 2 31 2.44772 31 3C31 3.55228 30.5523 4 30 4H18C17.4477 4 17 3.55228 17 3ZM18 8C17.4477 8 17 8.44771 17 9C17 9.55229 17.4477 10 18 10H30C30.5523 10 31 9.55229 31 9C31 8.44771 30.5523 8 30 8H18ZM20 15C20 14.4477 20.4477 14 21 14H30C30.5523 14 31 14.4477 31 15C31 15.5523 30.5523 16 30 16H21C20.4477 16 20 15.5523 20 15Z" fill="#F6F6F6"/>
</svg>
