<svg width="33" height="32" viewBox="0 0 33 32" fill="none" xmlns="http://www.w3.org/2000/svg">
<path d="M10.5 18C13.2614 18 15.5 15.7614 15.5 13C15.5 10.2386 13.2614 8 10.5 8C7.73858 8 5.5 10.2386 5.5 13C5.5 15.7614 7.73858 18 10.5 18Z" stroke="#F6F6F6" stroke-width="2" stroke-linecap="round" stroke-linejoin="round"/>
<path d="M19.5 10H31.5" stroke="#F6F6F6" stroke-width="2" stroke-linecap="round" stroke-linejoin="round"/>
<path d="M19.5 16H31.5" stroke="#F6F6F6" stroke-width="2" stroke-linecap="round" stroke-linejoin="round"/>
<path d="M22.5 22H31.5" stroke="#F6F6F6" stroke-width="2" stroke-linecap="round" stroke-linejoin="round"/>
<path d="M2.75 24.0001C3.1906 22.2792 4.1914 20.754 5.59462 19.6648C6.99784 18.5756 8.72366 17.9844 10.5 17.9844C12.2763 17.9844 14.0022 18.5756 15.4054 19.6648C16.8086 20.754 17.8094 22.2792 18.25 24.0001" stroke="#F6F6F6" stroke-width="2" stroke-linecap="round" stroke-linejoin="round"/>
</svg>
